<?xml version="1.0" encoding="utf-8"?>

<!DOCTYPE svg PUBLIC "-//W3C//DTD SVG 1.1//EN" "http://www.w3.org/Graphics/SVG/1.1/DTD/svg11.dtd">
<svg version="1.1" id="Layer_1" xmlns="http://www.w3.org/2000/svg" xmlns:xlink="http://www.w3.org/1999/xlink" x="0px" y="0px"
	 viewBox="-334 -521.233 1077 1683.1425" enable-background="new -334 -521.233 1077 1683.1425" xml:space="preserve">
<g>
	<path fill="#A90000" stroke="#A90000" stroke-width="0.2346" d="M-51.8984-361.439c21.2477-3.9292,42.7706,3.9292,61.2904,13.8398
		c11.9878,6.8823,24.9266,16.4926,25.7275,31.6087c9.7854-6.4068,20.2716-12.163,31.934-14.1401
		c23.8254-3.729,47.801,0.8008,71.5763,2.2774c-19.7961,8.7844-40.6183,15.2162-60.8649,23.0245
		c10.311,3.3286,21.1976,4.0544,31.5837,7.1076c35.2626,8.7844,68.9485,27.2291,92.0231,55.7845
		c27.154,32.7599,39.9926,74.6546,47.0752,115.9486c4.2545,19.7461,2.5527,40.0928,0.5756,60.014
		c-5.3807,60.6146-20.9473,120.5285-47.826,175.2369c-2.7279,5.2806-4.5548,11.262-8.9345,15.5165
		c-10.2359-28.0049-22.3739-55.2839-32.6348-83.2638c7.2827-33.6358,13.5394-68.1977,10.0858-102.7596
		c-2.6278-32.1843-10.4862-64.0934-24.2259-93.3746c-0.8759,0.6257-2.6278,1.877-3.5037,2.5027
		c-1.6518,18.0943-3.2535,36.2637-4.2545,54.4581c-2.0772-3.2535-3.9542-6.6571-5.3057-10.261
		c-14.5906-36.3638-37.8153-69.7494-69.399-93.3496c-2.1022,14.991-2.7529,30.1572-3.754,45.2483
		c-3.7039-1.3765-5.631-5.0554-8.0586-7.9084c-15.041-19.2205-38.416-32.86-63.2675-32.4596
		c-16.5677-1.0511-32.5097,5.5059-46.1492,14.3903c-20.1965,13.6646-33.4106,35.6881-40.1678,58.7627
		c-8.0085-15.4665-14.7657-31.5587-22.0986-47.3505c-12.5884,5.2306-24.3009,14.1401-29.5565,27.0789
		c-7.9335,18.2695-4.7301,38.8915-0.2503,57.5864c-10.1859-12.188-18.3946-25.8776-28.6055-38.0406
		c-17.7439,55.8596,1.7519,114.3219,24.401,165.6767c-21.0725,33.6859-40.9186,68.1727-62.7169,101.3831
		c-16.7428-29.4564-35.4628-58.2621-45.8489-90.7718c-8.9345-27.5794-12.0629-56.8356-10.8616-85.7414
		c1.7018-38.1157,3.4036-76.5817,12.4633-113.7964c5.8062-23.5001,14.5656-46.825,29.7067-65.9704
		c8.8845-11.1369,16.1672-23.4751,25.5773-34.2115c22.5991-27.4543,52.4309-49.8531,87.0178-59.4384
		c33.4106-9.9356,68.8234-7.7332,103.0349-3.804C-27.4223-328.0033-40.1609-344.3707-51.8984-361.439z"/>
	<path fill="#FFB17E" stroke="#FFB17E" stroke-width="0.2346" d="M395.3785-298.9473
		c9.5102-14.2152,24.8015-23.7503,40.9937-28.5805c23.6752-1.1262,47.5007,8.484,65.0694,24.1758
		c-11.237,0.976-22.5991-1.2763-33.761,0.8009c-22.499,3.6289-42.5954,16.2924-58.7126,31.9841
		c-9.6854,9.2349-16.6178,20.8472-25.6524,30.6577C381.6389-260.1059,383.7161-281.754,395.3785-298.9473z"/>
	<path fill="#FFB17E" stroke="#FFB17E" stroke-width="0.5872" d="M246.3696-285.4579
		c13.9399-19.4457,39.0917-24.8015,61.6658-24.9266c4.705,42.2701,29.1811,79.0593,58.4624,108.6409
		c-12.6635,40.4682-16.2424,84.7654-3.1034,125.6339c5.9814,21.6731,18.5198,40.7435,33.2354,57.5114
		c-31.1582-2.3525-60.3893-15.3914-85.9166-32.8601c5.631,21.4228,17.3936,42.0448,36.539,54.0827
		c27.254,17.2684,65.695,20.0464,92.4736,0.3254c27.7796,6.3317,56.8106-4.3296,78.4587-21.7983
		c41.8697-34.3116,62.4166-89.045,64.644-142.0515c1.0511-17.819-2.3276-35.3377-4.4548-52.9314
		c11.1368,15.8169,17.7939,34.2865,23.1747,52.7312c2.3275,6.4819,0.5255,13.3392-0.3003,19.9212
		c-8.6092,58.8378-39.6674,114.6973-87.1179,150.986c-35.588,27.5794-80.6109,42.9708-125.7091,41.9448
		c-53.407-0.8009-105.4875-24.9266-142.0515-63.5928c4.2045-31.0081,9.2098-62.5667,9.2348-94.1254
		c-5.5559-43.6716-16.1422-88.0939-40.8936-125.1585C225.4473-249.1192,234.9575-267.8892,246.3696-285.4579 M275.4507-220.4636
		c0.1251,1.1012,0.3754,3.3536,0.5005,4.4798c18.4196-6.2316,36.9394-12.0879,55.359-18.3446c0-1.1262,0.025-3.3786,0.025-4.5298
		C312.7654-232.5515,294.1956-226.2698,275.4507-220.4636 M309.512-212.0797c-22.5491,3.3536-37.5901,29.9069-28.2301,50.9043
		c7.458,20.597,34.4618,30.1572,53.2818,18.9452c17.0432-8.9846,24.0506-31.6087,15.8169-48.8771
		C343.8987-206.4737,325.6292-215.1579,309.512-212.0797z"/>
	<path fill="#FFD5BF" stroke="#FFD5BF" stroke-width="0.5872" d="M467.6807-302.5511c11.1619-2.0772,22.524,0.1752,33.761-0.8009
		l0.4255-0.025c21.9984,16.893,38.3409,39.7674,53.7573,62.5166c7.3329,9.1848,17.1183,16.4676,22.7493,27.0288
		c2.1272,17.5938,5.5059,35.1124,4.4548,52.9314c-2.2274,53.0065-22.7743,107.7399-64.644,142.0515
		c-21.6481,17.4686-50.679,28.13-78.4587,21.7983c10.286-8.2088,17.8941-19.0954,24.5512-30.3574
		c-21.7982,7.0325-44.7227,10.8115-67.6472,8.8094c-14.7156-16.7679-27.254-35.8382-33.2354-57.5114
		c-13.139-40.8686-9.5601-85.1658,3.1034-125.6339c10.7865,10.5112,21.4979,21.1726,33.2604,30.5826
		c-7.9334-22.1987-14.7156-45.1231-16.4425-68.7483c9.0346-9.8105,15.967-21.4229,25.6524-30.6577
		C425.0853-286.2588,445.1817-298.9223,467.6807-302.5511 M443.2796-239.9594c20.572,9.41,41.5193,17.9441,62.2664,27.0288
		c2.3024,2.1523,4.3797-0.1502,5.681-1.877c-20.5719-9.3099-41.4942-17.8941-62.1913-26.9538
		C446.7834-243.8135,444.6311-241.5861,443.2796-239.9594 M463.9767-215.3331c-15.4164,3.9542-27.5043,18.3445-28.08,34.3366
		c-1.6267,19.0954,13.6896,37.2648,32.6098,39.5172c22.474,3.6539,44.6476-16.9431,42.5204-39.6673
		C510.3011-203.971,485.9501-221.6649,463.9767-215.3331 M402.7865-137.8005c0.1251,4.8302,2.1523,9.2599,3.9542,13.6395
		c6.6822,15.942,12.9138,32.0842,19.671,48.0012c-8.7844,5.5309-19.3707,6.4569-28.6556,10.8115l0.05,2.6278l1.827,0.8259
		c9.9856-4.5549,23.7754-4.1294,30.4074-13.8898c-4.8552-17.1683-13.2141-33.2605-19.3456-50.0283
		C408.5676-130.0672,408.0671-136.1487,402.7865-137.8005z"/>
	<path stroke="#000000" stroke-width="0.2346" d="M443.2796-239.9594c1.3515-1.6267,3.5037-3.8541,5.7561-1.8019
		c20.6971,9.0597,41.6194,17.6438,62.1913,26.9538c-1.3014,1.7268-3.3786,4.0293-5.681,1.877
		C484.7989-222.0153,463.8516-230.5494,443.2796-239.9594z"/>
	<path stroke="#000000" stroke-width="0.2346" d="M275.4507-220.4636c18.745-5.8062,37.3148-12.0879,55.8846-18.3946
		c0,1.1512-0.025,3.4036-0.025,4.5298c-18.4196,6.2567-36.9394,12.1129-55.359,18.3446
		C275.826-217.11,275.5758-219.3624,275.4507-220.4636z"/>
	<path stroke="#000000" stroke-width="0.5872" d="M463.9767-215.3331c21.9734-6.3318,46.3244,11.3621,47.0502,34.1864
		c2.1272,22.7242-20.0464,43.3212-42.5204,39.6673c-18.9202-2.2524-34.2365-20.4218-32.6098-39.5172
		C436.4724-196.9886,448.5602-211.3789,463.9767-215.3331 M479.7436-204.4716c-6.4068,2.3275-10.2359,9.2599-9.4601,15.917
		c-0.1252,9.5101,10.8866,17.4186,19.721,13.6145c8.0586-2.6779,12.7136-12.7386,9.2349-20.5469
		C496.7366-203.02,487.1765-208.2005,479.7436-204.4716z"/>
	<path stroke="#000000" stroke-width="0.5872" d="M309.512-212.0797c16.1172-3.0783,34.3867,5.606,40.8686,20.9724
		c8.2337,17.2684,1.2263,39.8925-15.8169,48.8771c-18.8201,11.212-45.8239,1.6518-53.2818-18.9452
		C271.9219-182.1728,286.9629-208.7261,309.512-212.0797 M317.8959-183.6744c1.9771,10.1108,15.5166,14.4655,23.4,8.1837
		c6.4319-4.655,6.9825-13.4143,4.6299-20.3968c-3.654-3.0282-6.9074-8.0336-12.188-7.8333
		C323.1265-205.3976,314.4923-193.4848,317.8959-183.6744z"/>
	<path fill="#FFFFFF" stroke="#FFFFFF" stroke-width="0.2346" d="M479.7436-204.4716c7.4329-3.729,16.993,1.4516,19.4957,8.9846
		c3.4787,7.8083-1.1763,17.869-9.2349,20.5469c-8.8344,3.804-19.8461-4.1044-19.721-13.6145
		C469.5076-195.2117,473.3367-202.1441,479.7436-204.4716z"/>
	<path fill="#FFFFFF" stroke="#FFFFFF" stroke-width="0.2346" d="M317.8959-183.6744c-3.4036-9.8105,5.2306-21.7232,15.8419-20.0464
		c5.2806-0.2002,8.534,4.8051,12.188,7.8333c2.3525,6.9825,1.8019,15.7418-4.6299,20.3968
		C333.4125-169.2089,319.873-173.5636,317.8959-183.6744z"/>
	<path fill="#FFB17E" stroke="#FFB17E" stroke-width="0.5872" d="M-56.6285-178.0434c18.1694-13.114,41.9697-17.869,63.5928-11.5623
		c15.0911,4.0043,27.9298,13.5895,38.466,24.8265c-25.5523,2.2524-47.826,18.0192-63.2675,37.8153
		c-9.8605,12.238-16.4676,26.6284-22.6492,40.9687c-6.9574-17.7189-30.6327-25.7524-46.6998-15.2663
		c-16.6177,9.3349-20.5469,34.1864-7.6832,48.2264c10.7365,13.1641,31.2834,14.3903,44.5725,4.3797
		c0.025,16.7429-1.3014,33.6109,1.3765,50.2036c2.853,17.4686,8.7593,34.3366,16.7429,50.0784
		c-10.4111-2.4526-20.2966-6.582-30.1572-10.6363c7.2327,14.6406,16.6177,29.2562,31.5336,36.9894
		c9.6353,5.631,20.8973,7.1826,31.859,7.0575c12.4382,9.7103,29.2562,12.1129,44.5976,10.7364
		c26.5783-3.3286,49.0773-21.1475,64.1934-42.4703c25.0267-36.0134,34.0363-82.0625,27.129-125.1334
		c-0.6257-4.5799-1.1012-9.1848-1.6268-13.7647c1.3264-0.025,3.9292-0.1001,5.2556-0.1251
		c1.9521-19.0953,3.0282-38.2658,4.7551-57.3862c24.0757,53.6572,25.7775,115.7234,12.4133,172.534
		c-1.4265,4.8051-1.4516,10.3861-4.8802,14.3403c-34.1614,38.1907-82.8634,62.4166-133.5675,68.6983
		c-63.768,8.7343-130.9646-11.262-178.8907-54.408c3.1534-5.4308,6.9324-10.5112,9.4851-16.2673
		c-16.7929-39.7173-32.9601-81.5119-31.6087-125.3587c1.0511-10.361,1.1262-21.2727,5.4809-30.933
		c9.41,13.8147,19.1704,27.5043,29.5315,40.6183l2.2524,0.4755l0.8759-2.6278c-5.2056-20.9474-11.1869-43.7967-3.0783-64.8442
		c4.0043-11.0368,13.5395-18.5198,23.2248-24.401c9.6353,17.1683,16.2423,35.8382,25.4772,53.2318
		C-90.6147-137.1748-79.0023-162.9273-56.6285-178.0434 M-92.6419-115.3515c0.7008,0.8009,2.1023,2.3775,2.803,3.1533
		c15.4915-1.4265,30.983-3.1784,46.3995-5.1805c0.5005-0.8509,1.5016-2.5527,2.0021-3.4036
		C-58.6056-120.6822-75.6988-117.9543-92.6419-115.3515z"/>
	<path fill="#FFB17E" stroke="#FFB17E" stroke-width="0.2346" d="M66.0023-193.3847
		c22.0485,17.7189,40.7935,40.4181,52.2057,66.3708c-9.2599-7.9585-16.3925-18.2194-26.6785-25.0016
		c-8.2338-6.1065-18.1193-9.2599-27.8297-12.2381C64.8761-173.914,65.5769-183.6494,66.0023-193.3847z"/>
	<path fill="#FFD5BF" stroke="#FFD5BF" stroke-width="0.2346" d="M606.5788-146.2845c2.828-7.9084,7.7332-14.9409,11.4122-22.474
		c10.386,11.5373,9.1848,28.3302,6.9324,42.5704c-2.7279,11.7125-6.6821,24.7013-16.9681,31.934
		c-4.4797,3.6289-13.9648-0.6757-11.6874-6.7321C600.8978-115.802,603.976-130.9932,606.5788-146.2845z"/>
	<path fill="#FFD5BF" stroke="#FFD5BF" stroke-width="0.5872" d="M-17.8371-126.9639
		c15.4415-19.7961,37.7152-35.5629,63.2675-37.8153c6.1565,7.4079,11.287,15.5416,16.7679,23.425
		c0.5756-7.6331,0.926-15.2663,1.5016-22.8994c9.7103,2.9782,19.5959,6.1316,27.8297,12.2381
		c10.286,6.7822,17.4186,17.0432,26.6785,25.0016c7.5831,12.7386,13.9148,26.9037,17.1432,41.4192
		c0.5256,4.5799,1.0011,9.1848,1.6268,13.7647c6.9073,43.0709-2.1023,89.12-27.129,125.1334
		C94.7329,74.6261,72.2339,92.4451,45.6556,95.7736C30.3142,97.1501,13.4963,94.7475,1.058,85.0372
		c14.6657-1.3264,29.5315-6.9324,39.1167-18.5198c8.2588-9.2599,12.0629-21.2977,16.0421-32.7849
		C30.6396,51.151-1.7449,59.4099-32.1774,51.6265c-7.9835-15.7418-13.8898-32.6098-16.7429-50.0784
		c-2.6779-16.5927-1.3514-33.4607-1.3765-50.2036c10.5362-9.1597,14.2902-24.1507,9.8105-37.3398
		C-34.3047-100.3355-27.6976-114.7259-17.8371-126.9639 M28.1619-124.0608c20.9974,1.7018,42.145,0.2002,63.1924,0.5005
		c-0.3754-1.0261-1.1262-3.0783-1.5016-4.1044c-18.8451,0-37.7152,0.2252-56.5603,0.3504
		C30.965-127.3393,29.2631-126.2632,28.1619-124.0608 M53.3638-107.9937c-11.3371,3.1033-20.7221,12.8137-22.8994,24.426
		c-4.2295,17.794,9.7354,37.0145,28.0048,38.2408C77.0641-42.624,95.2335-59.517,93.7319-78.287
		C93.857-98.2082,72.3341-113.7498,53.3638-107.9937 M1.7087-42.3487C5.8131-27.1825,13.0458-13.0925,18.6518,1.5482
		c0.6006,2.778,3.8541,6.4569,1.2263,8.9345C13.221,13.8362,5.738,14.8874-1.1443,17.6653
		c-0.3254,1.1262-1.0261,3.3286-1.3765,4.4547c9.3099-3.754,22.8994-3.3536,28.2051-12.9388
		C20.9793-5.4844,14.147-19.3992,8.7913-33.8396C6.9894-37.018,6.639-42.5489,1.7087-42.3487z"/>
	<path stroke="#000000" stroke-width="0.2346" d="M402.7865-137.8005c5.2806,1.6518,5.7812,7.7332,7.9084,11.9878
		c6.1315,16.7679,14.4904,32.86,19.3456,50.0283c-6.632,9.7604-20.4218,9.3349-30.4074,13.8898l-1.827-0.8259l-0.05-2.6278
		c9.2849-4.3546,19.8712-5.2806,28.6556-10.8115c-6.7572-15.917-12.9889-32.0592-19.671-48.0012
		C404.9388-128.5406,402.9116-132.9703,402.7865-137.8005z"/>
	<path stroke="#000000" stroke-width="0.2346" d="M28.1619-124.0608c1.1012-2.2024,2.803-3.2785,5.1305-3.2535
		c18.8451-0.1251,37.7152-0.3504,56.5603-0.3504c0.3754,1.0261,1.1262,3.0783,1.5016,4.1044
		C70.3069-123.8606,49.1593-122.359,28.1619-124.0608z"/>
	<path stroke="#000000" stroke-width="0.2346" d="M-92.6419-115.3515c16.9431-2.6028,34.0363-5.3307,51.2046-5.4308
		c-0.5005,0.8509-1.5016,2.5527-2.0021,3.4036c-15.4165,2.0021-30.908,3.754-46.3995,5.1805
		C-90.5396-112.974-91.9411-114.5506-92.6419-115.3515z"/>
	<linearGradient id="SVGID_1_" gradientUnits="userSpaceOnUse" x1="29.41" y1="-77.1236" x2="94.1126" y2="-77.1236">
		<stop  offset="0" style="stop-color:#FFE0BF"/>
		<stop  offset="0.1" style="stop-color:#533D14"/>
		<stop  offset="0.2" style="stop-color:#FFE0BF"/>
		<stop  offset="0.3" style="stop-color:#533D14"/>
		<stop  offset="0.4" style="stop-color:#FFE0BF"/>
		<stop  offset="0.5" style="stop-color:#533D14"/>
		<stop  offset="0.6" style="stop-color:#FFE0BF"/>
		<stop  offset="0.7" style="stop-color:#533D14"/>
		<stop  offset="0.8" style="stop-color:#FFE0BF"/>
		<stop  offset="0.9" style="stop-color:#533D14"/>
		<stop  offset="1" style="stop-color:#FFE0BF"/>
	</linearGradient>
	<path stroke="url(#SVGID_1_)" stroke-width="0.5872" d="M53.3638-107.9937c18.9702-5.7561,40.4932,9.7854,40.3681,29.7067
		c1.5016,18.77-16.6678,35.663-35.2626,32.9601c-18.2695-1.2263-32.2343-20.4468-28.0048-38.2408
		C32.6417-95.18,42.0267-104.8904,53.3638-107.9937 M65.8021-98.2583c-5.4558,3.4286-8.8094,10.7865-5.8562,16.893
		c3.1033,10.7364,20.3217,10.8866,23.5251,0.1251C88.4262-91.8014,76.3383-103.8392,65.8021-98.2583z"/>
	<path stroke="#000000" stroke-width="0.5872" d="M-87.1861-101.2615c16.0671-10.4862,39.7424-2.4526,46.6998,15.2663
		c4.4798,13.1891,0.7258,28.1801-9.8105,37.3398c-13.2892,10.0107-33.8361,8.7844-44.5725-4.3797
		C-107.733-67.0751-103.8038-91.9265-87.1861-101.2615 M-64.1365-95.9308c-6.9324,4.4548-7.6832,15.4665-1.4516,20.8472
		c5.9563,6.2066,16.9681,3.5038,20.1965-4.2795C-39.6354-89.8994-54.2509-104.3648-64.1365-95.9308z"/>
	<path fill="#FFFFFF" stroke="#FFFFFF" stroke-width="0.2346" d="M65.8021-98.2583c10.5362-5.5809,22.6241,6.4569,17.6688,17.0182
		c-3.2034,10.7614-20.4218,10.6113-23.5251-0.1251C56.9927-87.4718,60.3463-94.8296,65.8021-98.2583z"/>
	<path fill="#FFFFFF" stroke="#FFFFFF" stroke-width="0.2346" d="M-64.1365-95.9308c9.8855-8.434,24.5011,6.0314,18.745,16.5677
		c-3.2284,7.7833-14.2402,10.4862-20.1965,4.2795C-71.8197-80.4643-71.0689-91.4761-64.1365-95.9308z"/>
	<path stroke="#000000" stroke-width="0.5872" d="M310.7133-51.4584c25.5273,17.4686,54.7584,30.5075,85.9166,32.8601
		c22.9245,2.0021,45.8489-1.7769,67.6472-8.8094c-6.657,11.262-14.2652,22.1486-24.5512,30.3574
		c-26.7785,19.721-65.2195,16.943-92.4736-0.3254C328.1068-9.4135,316.3443-30.0355,310.7133-51.4584 M317.7958-41.6229
		c6.6571,19.1955,20.2465,36.3387,38.7413,45.2232c17.3435,9.385,37.8153,9.8605,56.9357,7.4329
		c17.3936-4.1044,33.2855-15.917,41.4442-31.859c-35.8883,10.8616-75.2302,8.0836-109.5168-6.9574
		C335.6899-31.362,327.331-37.6937,317.7958-41.6229z"/>
	<path stroke="#000000" stroke-width="0.2346" d="M1.7087-42.3487c4.9303-0.2002,5.2806,5.3307,7.0826,8.5091
		c5.3557,14.4404,12.188,28.3552,16.893,43.0208c-5.3057,9.5852-18.8952,9.1848-28.2051,12.9388
		c0.3504-1.1262,1.0511-3.3285,1.3765-4.4547c6.8823-2.778,14.3653-3.8291,21.0224-7.1826
		c2.6278-2.4777-0.6257-6.1565-1.2263-8.9345C13.0458-13.0925,5.8131-27.1825,1.7087-42.3487z"/>
	<path fill="#FA0000" d="M317.7958-41.6229c9.5352,3.9292,17.8941,10.2609,27.6044,13.8398
		c34.2866,15.041,73.6285,17.819,109.5168,6.9574c-8.1588,15.942-24.0506,27.7546-41.4442,31.859
		c-19.1204,2.4276-39.5922,1.9521-56.9357-7.4329C338.0424-5.2842,324.4529-22.4274,317.7958-41.6229z"/>
	<path stroke="#000000" stroke-width="0.5872" d="M-32.1774,51.6265c30.4324,7.7833,62.817-0.4755,88.3943-17.8941
		c-3.9792,11.4872-7.7833,23.5251-16.0421,32.7849C30.5895,78.1048,15.7237,83.7107,1.058,85.0372
		c-10.9617,0.1251-22.2237-1.4265-31.859-7.0575c-14.9159-7.7332-24.3009-22.3488-31.5336-36.9894
		C-52.474,45.0445-42.5885,49.1739-32.1774,51.6265 M10.4931,56.6819c-21.3478,4.6049-43.4463,0.05-63.4427-7.8084
		c9.7104,23.6503,38.6662,37.7653,63.3426,30.7328C29.0629,76.5281,43.2531,61.0866,48.809,43.568
		C36.2205,48.3981,24.1326,55.1303,10.4931,56.6819z"/>
	<path fill="#FA0000" d="M10.4931,56.6819c13.6395-1.5517,25.7274-8.2839,38.3158-13.114
		C43.2531,61.0866,29.0629,76.5281,10.393,79.6064c-24.6763,7.0325-53.6322-7.0825-63.3426-30.7328
		C-32.9532,56.732-10.8547,61.2869,10.4931,56.6819z"/>
	<path fill="#670000" stroke="#670000" stroke-width="0.2346" d="M13.196,117.3717
		c54.6833-4.7801,106.2633-31.2333,143.8034-71.0258c7.3328,19.671,15.4164,39.0166,23.2248,58.4874
		c2.1272,5.581,4.4547,12.0879,1.2513,17.7439c-6.7072,13.5394-14.065,26.7785-21.1475,40.1178
		c-14.1902-14.6656-31.4335-32.0342-53.6572-29.7567c-11.1869,6.8072-17.844,19.0202-28.6806,26.303
		c-22.524,2.2024-40.0677-15.1161-51.1546-32.7099c-4.0793,6.507-8.7343,12.6135-13.5645,18.5698
		C13.196,135.8664,13.0708,126.6065,13.196,117.3717z"/>
	<path fill="#FFD5BF" d="M368.7752,54.5297c20.7721,2.803,41.9197,1.5767,62.4666-2.4526
		c-1.7018,0.3754-5.1305,1.1512-6.8323,1.5266c0.0251,5.2056,0.0501,10.4111,0.0751,15.6167c8.7093,0,17.4185,0,26.1279-0.025
		c-13.5895,15.5415-28.2552,30.6326-46.024,41.3941c-11.3622,6.8823-26.5534,10.7865-38.7163,3.6038
		c-15.3664-9.2349-23.475-26.1029-30.8329-41.7445c-6.582-0.8509-13.1641-1.902-19.721-2.9781
		c17.844-0.5256,35.6881-0.1251,53.5321-0.2503C368.8002,64.3151,368.7752,59.4349,368.7752,54.5297z"/>
	<path fill="#670000" stroke="#670000" stroke-width="0.2346" d="M-161.7906,61.6122
		c34.9623,30.8829,79.5098,50.9043,126.0094,55.4591c0.5005,16.2173,0.4505,32.4346,0.0501,48.6519
		c-13.3392-5.1805-25.5773-12.6635-38.6162-18.4697c-19.671,9.2348-39.2418,18.8451-59.4384,26.9037
		c-5.5309-8.8094-8.7093-19.4708-5.7812-29.7567c-0.3253-2.778,2.9532-7.2577-0.3253-9.0596
		c-24.9516-4.9303-50.9543-0.3254-73.4033,11.3371C-197.0282,117.8221-178.7837,90.0675-161.7906,61.6122z"/>
	<path fill="#A7A7A7" stroke="#A7A7A7" stroke-width="0.2346" d="M458.5709,67.6937c28.2552-2.3025,56.6104-3.5037,84.8655-6.0064
		c44.1721,76.7318,88.1942,153.5387,132.5164,230.1704c-38.5411-0.0751-76.2063,12.163-109.3916,31.2834
		c-14.7408-59.088-28.7056-118.3762-43.8969-177.3391c-5.9313,3.1784-2.3275,10.6364-2.7029,15.8669
		c3.6289,66.8713,8.3089,133.6925,11.287,200.5889c-16.893,5.2056-24.9516,23.0997-27.8297,39.2169
		c-33.1854,4.2795-66.4458,8.2337-99.6312,12.5884c-13.3142,1.7518-26.6534-0.5506-39.9176-1.4015
		c-41.5943-2.778-83.0886-6.4819-124.708-8.9596c3.8791-39.0917,9.5602-78.0081,12.6885-117.175
		c5.2306-51.9053,12.0128-103.6855,16.1172-155.666c-3.4787,1.877-6.1315,4.8051-8.0085,8.2588
		c-19.0703,31.909-39.0166,63.2425-57.9368,95.2266c-15.4415-8.2338-30.5075-17.1182-45.8739-25.4522
		c-7.1326-3.5037-11.0868-10.6364-16.1422-16.3925c-10.8115-12.7386-24.7514-22.3238-39.2669-30.3824
		c10.9116-5.9563,21.8984-11.8376,32.7099-18.0192c10.5112,7.2828,19.2956,16.6177,27.5544,26.303
		c8.9095-16.1422,17.0182-32.7349,26.0027-48.8271c1.6518,4.5298,3.3286,9.0597,5.0304,13.5895
		c6.5069-10.4111,11.6624-21.573,17.1183-32.5597c18.2444-10.1358,36.6391-20.0214,54.8335-30.3073
		c4.3296-2.3275,8.9345-5.3056,14.09-3.779c18.1944,2.7029,36.4389,4.9553,54.5332,8.1837
		c6.9323,15.4665,15.6417,31.4085,30.4325,40.6183c11.3621,7.3328,26.3531,5.656,37.9905-0.2002
		C424.2093,105.8844,440.5518,85.2874,458.5709,67.6937z"/>
	<path fill="#FFCFB0" d="M-34.0794,117.5218c15.7168,1.3765,31.5587,1.7268,47.2754-0.1502c-0.1251,9.2348,0,18.4947,0.0751,27.7296
		c-0.025,1.3764-0.1001,4.1044-0.1251,5.4558c-0.4004,12.6885,0.1752,25.3771-0.1251,38.0406
		c9.7854-0.1501,19.9713,1.5015,29.3813-1.9271c6.7322-2.5527,13.9899-1.3764,20.8723-0.2753
		c-6.557,0.5005-14.6907-2.1273-19.8462,3.2534c-14.4154,13.4644-32.5347,25.1519-52.9565,24.7264
		c-20.3217-0.5006-38.0656-12.2881-52.6562-25.5022c-23.9505,0.7007-47.9762,0.1251-71.8266,2.828
		c7.8584-2.1773,16.1172-2.5527,24.2258-2.9782c25.327-0.1251,50.679-0.1251,76.0061,0.0751c0-5.7311,0.025-11.4372,0.05-17.1433
		C-34.0294,153.6103-33.5789,135.566-34.0794,117.5218z"/>
	<path fill="#670000" stroke="#670000" stroke-width="0.2346" d="M-232.0656,126.3562c5.0554,7.4329,9.3099,15.3664,13.7897,23.1747
		c-4.4297,3.6039-9.0096,7.0325-13.8398,10.0858C-232.4159,148.5299-232.9665,137.418-232.0656,126.3562z"/>
	<path fill="#FFD5BF" stroke="#FFD5BF" stroke-width="0.2346" d="M69.2558,186.6956c10.9116-6.3568,21.9484-12.4883,32.86-18.8701
		c14.6156,8.0586,28.2051,18.4447,38.3909,31.7589c-9.2098-3.5537-16.868-11.8126-27.2791-11.4372
		C98.562,187.4965,83.9214,187.021,69.2558,186.6956z"/>
	<path fill="#850085" stroke="#850085" stroke-width="0.5872" d="M49.0092,190.0241c17.1934,0.5256,34.3617,2.1273,51.6051,1.827
		c7.3578,0.3504,15.3413-0.8258,22.0986,2.8531c41.7445,23.45,83.464,46.9751,125.3336,70.2249
		c-0.976,19.8461-2.4276,39.6423-3.2534,59.4884c-46.7249-23.0997-92.774-47.6007-139.7991-70.0747
		c-5.3808,66.0454-11.4622,132.0158-17.1683,198.0362c-65.4448,0.5255-130.8896,2.5527-196.3344,2.0772
		c-0.2253-3.7039-0.4255-7.433-0.6257-11.1119c18.8201-23.5501,20.3217-56.285,17.5687-85.0657
		c-3.0783-19.696-7.5831-43.0209-25.6774-54.4831c-1.5767-17.5688-2.3025-35.1625-3.2034-52.7563
		c-32.6348,25.0267-64.2185,51.4299-96.0525,77.4576c22.7242,46.2743,40.7184,99.1307,84.4901,130.2889
		c-29.5065,14.7657-59.8388,27.8797-89.7457,41.8697c-0.4505-26.0779-8.7844-51.2296-19.1955-74.9049
		c-17.1683-38.0656-39.8925-73.2031-61.5156-108.791c55.5592-39.7173,111.1936-79.3346,166.7028-119.102
		c4.5298-3.6789,10.6363-3.2034,16.1172-3.4537c13.3642-0.025,26.7285-0.2002,40.0677-1.2263
		c6.8573-0.0751,14.991-2.4526,20.2216,3.3786c15.5916,13.6395,35.9133,24.0006,57.161,21.623
		C17.901,216.0519,34.8691,203.6386,49.0092,190.0241 M-47.744,231.0929c-3.5288,3.4537-3.3035,8.8094-4.2545,13.3393
		c-2.5277-2.4777-4.9052-5.1055-7.9084-7.0075c-8.409-2.853-16.7929,4.1544-19.3957,11.7876
		c-1.2513,5.4308,3.6039,9.5852,6.0314,13.8647c-9.6353-4.0543-20.7972,3.2535-19.671,13.9649
		c-1.3014,8.5341,7.1076,13.164,14.4404,13.5144c-3.729,3.4036-9.0096,6.2817-9.9606,11.6874
		c-0.5756,6.7072,3.5788,13.2892,9.36,16.5427c5.2056,2.3025,10.3861-1.2764,15.1161-3.0783
		c-0.8509,4.0543-3.2785,8.3589-1.7519,12.5634c2.9531,7.9585,13.3392,11.187,20.8973,8.3339
		c3.779-2.3275,5.1805-6.7071,6.8072-10.5112c1.6017,2.4776,3.2785,4.9302,5.1054,7.2827c4.9052,7.1326,16.3424,4.605,21.548-1.0011
		c4.5549-4.3797,1.7519-11.1619,1.1512-16.4675c4.1544,1.7518,8.434,4.5048,13.164,3.4036
		c7.6081-2.9031,12.6135-12.0378,9.9356-19.9212c-2.2274-3.9292-6.3818-6.1566-9.7604-8.9095
		c5.0804-1.1012,11.5623-1.4265,14.04-6.9324c2.5527-6.7823,1.0261-16.3425-5.9814-19.9463
		c-3.6789-2.3525-8.2338-0.9261-12.238-0.7759c2.0772-3.6288,5.1054-7.0074,5.681-11.262
		c-0.3003-7.2577-6.8573-13.3892-13.7146-14.6907c-6.2066-1.2012-10.1358,4.3547-14.3903,7.7332
		c-0.7007-4.3546,0.2503-9.5852-3.0533-13.0138C-32.1273,226.1626-41.8877,226.0376-47.744,231.0929 M5.2625,334.2529
		c-3.9542,3.8792-3.0032,9.8856-3.2034,14.9159c-3.6539-4.2795-7.6582-10.1107-14.0149-9.6352
		c-6.3317,1.4515-12.238,6.1816-14.04,12.5634c-1.3765,5.3307,3.0783,9.5852,5.4308,13.8398
		c-5.0304-0.3003-11.0368-1.6267-14.9409,2.5778c-5.2556,4.6049-4.0043,11.9377-4.0793,18.1443
		c3.729,4.4047,9.0096,6.2567,14.6656,6.7822c-3.2535,2.7529-7.1076,5.0304-9.41,8.7093
		c-3.0032,7.3829,1.5767,15.3914,7.7082,19.5208c5.2806,1.9771,10.5613-0.6006,15.3163-2.7279
		c-0.7508,4.9053-2.7779,10.2359-0.3003,15.041c3.9542,4.8301,10.7365,7.6082,16.918,6.507
		c5.8562-1.0261,7.6832-7.3078,10.9367-11.4622c1.7268,3.0283,2.6278,6.7072,5.1805,9.2348
		c6.532,4.9553,16.5677,2.0022,21.2727-4.1294c3.5538-4.5549,0.8759-10.2859-0.0501-15.1912
		c4.7551,2.0772,9.9857,4.705,15.2663,2.7529c6.2567-3.9041,11.1119-12.3131,7.8084-19.5458
		c-1.4265-3.6789-6.7572-4.6049-7.2327-8.6342c4.3046-1.5016,9.4601-2.3775,11.7876-6.8322
		c1.9771-6.582,1.4265-15.3664-4.9303-19.3957c-4.0042-2.9782-9.1097-1.4015-13.6395-1.2513
		c2.3025-3.754,5.4058-7.2077,6.3317-11.6374c-1.1012-7.4329-7.6832-13.3893-14.8659-14.9409
		c-5.4558-0.1752-9.0346,4.6049-12.8387,7.7582c-1.0261-4.9303-0.901-11.2119-5.6561-14.2652
		C18.7519,329.6731,10.4931,329.648,5.2625,334.2529z"/>
	<path stroke="#000000" stroke-width="0.5872" d="M-47.744,231.0929c5.8563-5.0554,15.6166-4.9303,21.1976,0.5006
		c3.3035,3.4286,2.3525,8.6592,3.0533,13.0138c4.2545-3.3785,8.1837-8.9345,14.3903-7.7332
		c6.8573,1.3014,13.4143,7.4329,13.7146,14.6907c-0.5756,4.2546-3.6038,7.6332-5.681,11.262
		c4.0043-0.1501,8.5591-1.5766,12.238,0.7759c7.0075,3.6038,8.5341,13.164,5.9814,19.9463
		c-2.4777,5.5058-8.9596,5.8312-14.04,6.9324c3.3786,2.753,7.533,4.9803,9.7604,8.9095c2.6779,7.8834-2.3275,17.0181-9.9356,19.9212
		c-4.73,1.1012-9.0096-1.6518-13.164-3.4036c0.6007,5.3057,3.4036,12.0879-1.1512,16.4675
		c-5.2055,5.606-16.6428,8.1337-21.548,1.0011c-1.8269-2.3525-3.5037-4.8051-5.1054-7.2827
		c-1.6267,3.804-3.0282,8.1837-6.8072,10.5112c-7.5581,2.8531-17.9442-0.3754-20.8973-8.3339
		c-1.5266-4.2045,0.901-8.5091,1.7519-12.5634c-4.73,1.8019-9.9106,5.3808-15.1161,3.0783
		c-5.7812-3.2534-9.9356-9.8354-9.36-16.5427c0.951-5.4057,6.2316-8.2838,9.9606-11.6874
		c-7.3328-0.3504-15.7418-4.9803-14.4404-13.5144c-1.1262-10.7114,10.0357-18.0193,19.671-13.9649
		c-2.4276-4.2795-7.2828-8.434-6.0314-13.8647c2.6028-7.6332,10.9867-14.6406,19.3957-11.7876
		c3.0032,1.9021,5.3807,4.5298,7.9084,7.0075C-51.0475,239.9024-51.2727,234.5466-47.744,231.0929 M-47.1684,236.6239
		c-0.6007,8.509,1.4015,16.7678,4.6049,24.5761c3.4787-0.1251,6.9824-0.1751,10.4862-0.1251
		c2.6779-9.335,9.0096-21.3979,0.2252-29.2813c-3.4787,0.0501-6.9324,0.0751-10.3861,0.1001
		C-43.8899,233.4705-45.5417,235.0472-47.1684,236.6239 M-73.5966,255.9945c4.3046,5.631,10.361,9.7353,16.4926,13.189
		c3.8291-0.025,6.1816-4.6549,9.36-6.5319c-3.2785-7.2077-5.9063-15.2663-12.1379-20.547
		C-67.7403,237.5248-79.0274,248.036-73.5966,255.9945 M-16.1353,243.2809c-5.2055,5.3307-7.6331,12.5884-10.9367,19.0954
		c2.828,2.4526,5.656,4.9053,8.409,7.458c7.2828-4.7551,16.2924-9.2098,19.3206-17.9191
		C0.6326,244.4572-9.9787,237.2745-16.1353,243.2809 M-43.5395,265.7549c-12.6135,3.7791-17.2684,21.3227-8.0336,30.7828
		c8.9596,10.9367,29.106,6.6571,32.4596-7.2327C-14.1332,275.29-29.6747,259.9737-43.5395,265.7549 M-84.7585,266.5558
		c-3.9292,5.2306-6.1315,11.9377-2.2774,17.869c8.5842,3.5538,17.9191,2.4526,26.7285,0.4755
		c0.3754-3.5288,0.7508-7.0576,1.1512-10.5613C-67.0145,269.9093-75.4485,265.7298-84.7585,266.5558 M-15.3094,274.339
		c0.2753,3.5288,0.5756,7.0826,0.926,10.6364c8.9846,1.877,18.5948,3.1534,27.179-0.976c1.8019-5.631,2.3025-13.0389-3.0032-16.9681
		C0.7577,265.2043-7.7764,269.9344-15.3094,274.339 M-82.6562,299.2657c-4.7801,4.6049,0,11.5373,3.729,15.1161
		c10.9116,3.5288,18.1944-8.2087,24.9015-14.7908c-2.2524-3.0782-4.4547-6.1816-6.6571-9.2598
		C-68.0907,292.7587-76.9251,293.4344-82.6562,299.2657 M-17.8371,302.8445c5.2556,5.1055,10.4361,11.9628,18.3696,12.4883
		c5.8562-0.1502,7.8834-6.507,9.5852-11.0618c-2.6278-10.8116-16.1422-11.1869-24.8765-13.8899
		C-15.9601,294.3354-22.6422,299.0654-17.8371,302.8445 M-51.1476,303.6703c-4.0793,7.458-11.9127,14.2151-10.8866,23.3749
		c1.877,5.0804,7.7833,5.6561,12.213,7.3329c1.3014-0.6758,3.9042-2.0272,5.2056-2.7029c3.8541-7.508,4.1544-16.1172,5.0304-24.3259
		C-43.4144,306.0479-47.2685,304.7965-51.1476,303.6703 M-34.655,307.2491c0.3754,9.6603-0.5005,23.1247,10.361,27.4543
		c4.7801-2.2023,11.4372-3.6539,12.163-9.9606c-1.827-8.2087-7.2327-14.8658-12.2881-21.3228
		C-27.8228,304.6964-31.2264,305.9978-34.655,307.2491z"/>
	<path fill="#FFFFFF" stroke="#FFFFFF" stroke-width="0.2346" d="M-47.1684,236.6239c1.6267-1.5767,3.2785-3.1534,4.9303-4.7301
		c3.4537-0.0251,6.9074-0.05,10.3861-0.1001c8.7844,7.8834,2.4526,19.9463-0.2252,29.2813c-3.5037-0.05-7.0075,0-10.4862,0.1251
		C-45.7669,253.3917-47.769,245.1329-47.1684,236.6239z"/>
	<path fill="#FFFFFF" stroke="#FFFFFF" stroke-width="0.2346" d="M-73.5966,255.9945c-5.4308-7.9585,5.8563-18.4697,13.7146-13.8898
		c6.2316,5.2807,8.8595,13.3393,12.1379,20.547c-3.1784,1.877-5.5309,6.507-9.36,6.5319
		C-63.2355,265.7298-69.292,261.6255-73.5966,255.9945z"/>
	<path fill="#FFFFFF" stroke="#FFFFFF" stroke-width="0.2346" d="M-16.1353,243.2809c6.1566-6.0064,16.7679,1.1763,16.7929,8.6342
		c-3.0282,8.7093-12.0378,13.1641-19.3206,17.9191c-2.7529-2.5527-5.581-5.0053-8.409-7.458
		C-23.7684,255.8693-21.3408,248.6116-16.1353,243.2809z"/>
	<path fill="#FEFE00" d="M-43.5395,265.7549c13.8648-5.7812,29.4064,9.5352,24.4261,23.5501
		c-3.3536,13.8898-23.5001,18.1694-32.4596,7.2327C-60.8079,287.0776-56.153,269.5339-43.5395,265.7549z"/>
	<path fill="#FFFFFF" stroke="#FFFFFF" stroke-width="0.2346" d="M-84.7585,266.5558c9.3099-0.8259,17.7439,3.3536,25.6023,7.7833
		c-0.4004,3.5037-0.7758,7.0325-1.1512,10.5613c-8.8094,1.9771-18.1444,3.0783-26.7285-0.4755
		C-90.89,278.4935-88.6877,271.7863-84.7585,266.5558z"/>
	<path fill="#FFFFFF" stroke="#FFFFFF" stroke-width="0.2346" d="M-15.3094,274.339c7.533-4.4046,16.0671-9.1347,25.1018-7.3077
		c5.3057,3.9291,4.8051,11.3371,3.0032,16.9681c-8.5842,4.1294-18.1944,2.853-27.179,0.976
		C-14.7338,281.4216-15.0341,277.8678-15.3094,274.339z"/>
	<path fill="#FFFFFF" stroke="#FFFFFF" stroke-width="0.2346" d="M-82.6562,299.2657c5.7311-5.8313,14.5655-6.507,21.9734-8.9345
		c2.2023,3.0782,4.4047,6.1816,6.6571,9.2598c-6.7072,6.582-13.9899,18.3195-24.9015,14.7908
		C-82.6562,310.8029-87.4363,303.8706-82.6562,299.2657z"/>
	<path fill="#FFFFFF" stroke="#FFFFFF" stroke-width="0.2346" d="M-17.8371,302.8445c-4.8051-3.7791,1.877-8.5091,3.0783-12.4633
		c8.7343,2.7029,22.2487,3.0783,24.8765,13.8899c-1.7018,4.5548-3.729,10.9116-9.5852,11.0618
		C-7.401,314.8072-12.5815,307.9499-17.8371,302.8445z"/>
	<path fill="#FFD5BF" d="M-144.4221,314.4318c4.0293-8.7593,13.7897-11.8627,22.0485-15.2412
		c1.2764,1.1512,3.8541,3.4536,5.1305,4.6049c18.0943,11.4622,22.5991,34.7871,25.6774,54.4831
		c2.753,28.7807,1.2513,61.5156-17.5687,85.0657l-2.6528,3.5789c-0.7258,1.3764-1.4515,2.803-2.1523,4.2545
		c0.2002-0.6257,0.5756-1.852,0.7508-2.4526c-7.1076,1.3764-15.3914,3.2534-21.4729-2.0272
		c-12.4633-9.8104-17.2684-25.9776-20.7722-40.7935C-161.1399,375.4719-160.0387,341.9111-144.4221,314.4318z"/>
	<path fill="#FFFFFF" stroke="#FFFFFF" stroke-width="0.2346" d="M-51.1476,303.6703c3.8791,1.1262,7.7333,2.3776,11.5623,3.6789
		c-0.8759,8.2087-1.1763,16.8179-5.0304,24.3259c-1.3014,0.6758-3.9042,2.0272-5.2056,2.7029
		c-4.4297-1.6768-10.336-2.2525-12.213-7.3329C-63.0603,317.8854-55.227,311.1283-51.1476,303.6703z"/>
	<path fill="#FFFFFF" stroke="#FFFFFF" stroke-width="0.2346" d="M-34.655,307.2491c3.4286-1.2513,6.8323-2.5527,10.2359-3.8291
		c5.0554,6.4569,10.4612,13.114,12.2881,21.3228c-0.7258,6.3067-7.3829,7.7583-12.163,9.9606
		C-35.1556,330.3738-34.2796,316.9095-34.655,307.2491z"/>
	<path stroke="#000000" stroke-width="0.5872" d="M5.2625,334.2529c5.2306-4.6049,13.4894-4.5799,19.4207-1.3014
		c4.7551,3.0533,4.63,9.3349,5.6561,14.2652c3.804-3.1533,7.3829-7.9334,12.8387-7.7582
		c7.1827,1.5516,13.7647,7.508,14.8659,14.9409c-0.926,4.4297-4.0293,7.8834-6.3317,11.6374
		c4.5298-0.1501,9.6353-1.7268,13.6395,1.2513c6.3568,4.0293,6.9074,12.8137,4.9303,19.3957
		c-2.3275,4.4547-7.483,5.3307-11.7876,6.8322c0.4755,4.0293,5.8062,4.9553,7.2327,8.6342
		c3.3035,7.2328-1.5517,15.6417-7.8084,19.5458c-5.2806,1.9521-10.5112-0.6757-15.2663-2.7529
		c0.926,4.9053,3.6038,10.6363,0.0501,15.1912c-4.705,6.1316-14.7407,9.0847-21.2727,4.1294
		c-2.5527-2.5276-3.4537-6.2066-5.1805-9.2348c-3.2535,4.1544-5.0804,10.4362-10.9367,11.4622
		c-6.1816,1.1012-12.9638-1.6768-16.918-6.507c-2.4776-4.8051-0.4505-10.1358,0.3003-15.041
		c-4.7551,2.1273-10.0357,4.705-15.3163,2.7279c-6.1315-4.1294-10.7114-12.1379-7.7082-19.5208
		c2.3025-3.6789,6.1566-5.9564,9.41-8.7093c-5.656-0.5255-10.9367-2.3775-14.6656-6.7822
		c0.0751-6.2066-1.1763-13.5395,4.0793-18.1443c3.9042-4.2045,9.9106-2.8781,14.9409-2.5778
		c-2.3525-4.2545-6.8073-8.509-5.4308-13.8398c1.8019-6.3818,7.7082-11.1118,14.04-12.5634
		c6.3568-0.4755,10.361,5.3557,14.0149,9.6352C2.2593,344.1385,1.3083,338.1321,5.2625,334.2529 M6.3136,339.909
		c-2.4026,8.1837,2.0522,16.4926,4.1294,24.376c3.5037-0.025,7.0325-0.025,10.5612,0c3.0032-7.9585,5.1805-16.2423,4.8052-24.7764
		C21.0544,333.402,10.0426,331.8504,6.3136,339.909 M-21.8163,356.802c4.0293,7.4329,11.7876,11.7125,18.8201,15.892
		c2.753-2.3525,5.5559-4.63,8.384-6.9074C1.984,358.3036-0.7689,349.9196-7.401,344.614
		C-14.5586,341.9361-23.8936,349.1688-21.8163,356.802 M38.6982,344.7642c-6.532,5.2806-9.1848,13.5895-12.6385,20.9223
		c3.0032,2.3525,6.0064,4.7551,8.9846,7.1577c6.9825-5.6811,19.4958-10.2109,18.1193-21.0975
		C50.7861,346.491,44.5044,342.2865,38.6982,344.7642 M11.4692,368.2142C-1.9451,370.867-8.1017,388.8361,1.0831,399.072
		c8.7343,11.3622,29.056,7.5331,32.785-6.4068C39.0736,379.4261,25.0336,364.3351,11.4692,368.2142 M-34.655,386.9341
		c8.5842,4.1794,18.4697,3.0032,27.4793,0.976c0.3003-2.5778,0.8759-7.7332,1.1763-10.311
		c-7.3328-3.9542-15.0661-8.9846-23.7503-8.0335C-36.2317,372.4687-36.7573,380.9778-34.655,386.9341 M37.4469,377.3489
		c0.5005,3.6039,0.8259,7.2577,1.6768,10.8366c8.7343,1.8019,18.2945,2.7779,26.6284-1.1262
		c2.6779-5.5559,2.3275-13.4644-3.3286-17.0181C53.4389,367.6136,45.2802,373.8702,37.4469,377.3489 M-32.4527,406.7052
		c2.5027,4.68,4.2796,11.2119,10.5112,11.9878c8.4841-1.6768,14.2652-8.7593,19.7711-14.8659
		c0.7007-3.754-3.2284-6.8323-4.5048-10.236C-16.1103,395.5683-27.6225,397.0199-32.4527,406.7052 M38.2477,393.5662
		c-1.827,3.2534-3.704,6.532-5.581,9.8104c6.2817,5.7061,11.6624,13.5145,20.5219,15.3164
		c6.0815-1.0011,10.5863-7.9084,9.6854-13.7647C57.7435,396.6195,46.9069,395.6434,38.2477,393.5662 M-6.6502,434.2095
		c5.9564,3.0032,12.9889,4.3546,17.0432-2.2524c1.5516-7.2077,2.8781-14.4904,2.803-21.8733
		c-3.4036-1.1012-6.7572-2.3525-10.2359-3.1784C-3.2465,414.038-13.1821,424.5242-6.6502,434.2095 M18.0011,410.3842
		c1.6518,9.0096-0.5255,22.8494,10.0858,26.8786c5.4558-0.6757,13.4394-3.6289,12.5884-10.4612
		c-1.7769-7.2828-6.557-13.4644-11.0618-19.3206C25.6843,406.2297,21.8302,409.6584,18.0011,410.3842z"/>
	<path fill="#FFFFFF" stroke="#FFFFFF" stroke-width="0.2346" d="M6.3136,339.909c3.729-8.0586,14.7407-6.5069,19.4958-0.4004
		c0.3754,8.5341-1.8019,16.8179-4.8052,24.7764c-3.5287-0.025-7.0575-0.025-10.5612,0
		C8.3658,356.4016,3.9111,348.0927,6.3136,339.909z"/>
	<path fill="#FFFFFF" stroke="#FFFFFF" stroke-width="0.2346" d="M-21.8163,356.802c-2.0772-7.6332,7.2577-14.8659,14.4154-12.188
		c6.6321,5.3056,9.385,13.6896,12.7886,21.1725c-2.828,2.2774-5.631,4.5549-8.384,6.9074
		C-10.0288,368.5145-17.787,364.2349-21.8163,356.802z"/>
	<path fill="#FFFFFF" stroke="#FFFFFF" stroke-width="0.2346" d="M38.6982,344.7642c5.8062-2.4777,12.0879,1.7268,14.4654,6.9825
		c1.3765,10.8865-11.1369,15.4164-18.1193,21.0975c-2.9781-2.4026-5.9814-4.8052-8.9846-7.1577
		C29.5134,358.3536,32.1662,350.0448,38.6982,344.7642z"/>
	<path fill="#FFD5BF" d="M503.4188,401.4746c2.8781-16.1172,10.9366-34.0113,27.8297-39.2169
		c1.1763-0.1251,3.5288-0.3503,4.7051-0.4755c15.8669,1.6518,25.9526,16.2173,31.1832,29.982
		c8.5841,23.3749,8.5591,50.7541-3.2285,73.0279c-5.631,11.1118-17.744,20.2967-30.7828,16.6678
		c-2.5527-1.3264-5.1304-2.6278-7.6832-3.9292c-15.5165-11.9878-21.5479-32.1092-23.3749-50.8792
		C501.4417,418.2425,501.9672,409.7834,503.4188,401.4746z"/>
	<path fill="#FFFF00" d="M11.4692,368.2142c13.5644-3.8791,27.6044,11.212,22.3989,24.451
		c-3.729,13.9399-24.0507,17.769-32.785,6.4068C-8.1017,388.8361-1.9451,370.867,11.4692,368.2142z"/>
	<path fill="#FFFFFF" stroke="#FFFFFF" stroke-width="0.2346" d="M-34.655,386.9341c-2.1022-5.9564-1.5767-14.4654,4.9052-17.3685
		c8.6843-0.951,16.4175,4.0794,23.7503,8.0335c-0.3003,2.5778-0.8759,7.7332-1.1763,10.311
		C-16.1853,389.9373-26.0709,391.1136-34.655,386.9341z"/>
	<path fill="#FFFFFF" stroke="#FFFFFF" stroke-width="0.2346" d="M37.4469,377.3489c7.8334-3.4787,15.9921-9.7353,24.9766-7.3077
		c5.6561,3.5537,6.0064,11.4622,3.3286,17.0181c-8.3339,3.9041-17.8941,2.9281-26.6284,1.1262
		C38.2727,384.6066,37.9474,380.9527,37.4469,377.3489z"/>
	<path fill="#FFFFFF" stroke="#FFFFFF" stroke-width="0.2346" d="M-32.4527,406.7052c4.8302-9.6853,16.3424-11.1369,25.7775-13.114
		c1.2763,3.4037,5.2055,6.482,4.5048,10.236c-5.5059,6.1065-11.287,13.1891-19.7711,14.8659
		C-28.1731,417.9171-29.95,411.3852-32.4527,406.7052z"/>
	<path fill="#FFFFFF" stroke="#FFFFFF" stroke-width="0.2346" d="M38.2477,393.5662c8.6592,2.0772,19.4958,3.0533,24.6263,11.3622
		c0.901,5.8562-3.6038,12.7635-9.6854,13.7647c-8.8594-1.8019-14.2402-9.6103-20.5219-15.3164
		C34.5438,400.0981,36.4207,396.8196,38.2477,393.5662z"/>
	<path fill="#FFFFFF" stroke="#FFFFFF" stroke-width="0.2346" d="M-6.6502,434.2095c-6.532-9.6853,3.4036-20.1715,9.6103-27.3041
		c3.4787,0.8259,6.8323,2.0773,10.2359,3.1784c0.0751,7.3828-1.2513,14.6656-2.803,21.8733
		C6.3387,438.5641-0.6938,437.2128-6.6502,434.2095z"/>
	<path fill="#FFFFFF" stroke="#FFFFFF" stroke-width="0.2346" d="M18.0011,410.3842c3.8291-0.7258,7.6832-4.1544,11.6124-2.9031
		c4.5048,5.8562,9.2849,12.0378,11.0618,19.3206c0.8509,6.8322-7.1326,9.7855-12.5884,10.4612
		C17.4756,433.2335,19.6529,419.3938,18.0011,410.3842z"/>
	<path fill="#2025FF" stroke="#2025FF" stroke-width="0.2346" d="M264.464,418.668c1.1262-3.4286,2.6278-6.6822,4.5048-9.7604
		c0.4004,6.7322,0.4004,13.5144,0.3003,20.2716c77.5827-0.7257,155.1905-2.1773,232.7982-2.5276
		c1.827,18.77,7.8584,38.8914,23.3749,50.8792c5.0804,38.3409,10.9117,76.5817,16.2424,114.8725
		c5.8563,49.2025,10.8616,98.5051,16.3925,147.7576c2.2524,24.1258,6.4819,48.1263,5.9564,72.4274
		c1.5266,62.7418,1.9021,125.5087,2.853,188.2757c-50.679,5.8062-101.333,11.6624-152.0121,17.3685
		c0.1001-61.0652,0.0751-122.1053,0.1502-183.1703c0.025-11.6375,0.3003-23.3249-0.876-34.9122
		c-6.2316-59.4133-9.5101-119.1271-17.5187-178.3402c-2.1022-13.7396-3.7289-27.7045-8.7593-40.7435
		c-23.6752,65.6701-32.7098,135.1692-43.8718,203.7173c-1.5266,11.6123-5.8812,23.0996-4.1794,34.9372
		c8.0586,65.2446,15.7668,130.5143,23.7753,195.7838c-46.4996,1.2513-92.9992,2.1023-139.4988,2.9032
		c-3.4036-84.3901-8.6342-168.73-11.7625-253.12c7.2077-56.9357,16.3674-113.6212,23.8254-170.5319
		C241.5896,535.5676,246.9953,475.7538,264.464,418.668z"/>
	<path fill="#FFD5BF" stroke="#FFD5BF" stroke-width="0.2346" d="M-183.1384,487.3912
		c13.139-5.9063,26.1779-12.0378,39.2419-18.0693c1.927,0.5006,6.4819,0.2252,8.409,0.7258
		c0.3003,4.2795-0.3253,9.8855,0.1251,14.1901c2.0022,9.6103-0.0751,21.2727,7.483,28.8558
		c6.9824,8.0836,13.6145,16.4676,20.597,24.5513c0.6007,3.1283,5.5309,1.1512,3.9292-1.3515
		c-7.7082-11.0618-18.0192-20.1215-25.2019-31.5336c-1.8019-10.6864-1.8019-21.5981-3.7039-32.2844
		c2.5027,1.5767,5.0554,3.1284,7.6582,4.5799c4.1294,2.1273,5.606-2.2274,7.6582-4.7551c0,2.1773-0.05,6.532-0.0751,8.6843
		c6.1566,4.1544,12.0879,8.6342,17.4186,13.8147c17.3685,17.1934,31.5837,39.8426,32.3845,64.8943
		c0.7007,13.4393-6.8073,28.18-20.622,31.6086c-21.0725,5.1055-42.145-5.9563-58.0869-18.9202
		c-0.876-0.7758-2.5778-2.3525-3.4287-3.1283c-21.3227-19.4207-39.0667-47.4756-35.1625-77.4576
		C-184.1645,490.6948-183.4637,488.4924-183.1384,487.3912z"/>
	<path stroke="#000000" stroke-width="0.2346" d="M-135.4876,470.0478l3.2285,2.4276c1.902,10.6864,1.902,21.5981,3.7039,32.2844
		c7.1827,11.4122,17.4937,20.4718,25.2019,31.5336c1.6017,2.5027-3.3285,4.4798-3.9292,1.3515
		c-6.9825-8.0837-13.6145-16.4677-20.597-24.5513c-7.5581-7.5831-5.4809-19.2455-7.483-28.8558
		C-135.4375,479.4828-135.4625,474.7528-135.4876,470.0478z"/>
	<path fill="#434343" stroke="#434343" stroke-width="0.2346" d="M-225.9841,491.9961c2.828,4.0043,3.9792,8.8595,3.4287,13.7397
		c-0.8759,0.2252-2.6028,0.7007-3.4537,0.951C-227.0602,501.8316-226.6348,496.8513-225.9841,491.9961z"/>
	<path fill="#FF9FFF" stroke="#FF9FFF" stroke-width="0.2346" d="M-99.5993,494.7991
		c63.9432-0.2252,127.8614-1.5516,191.8046-2.1773c14.5906,107.5397,31.1832,214.7791,47.876,322.0183
		c1.1012,6.7322,2.0022,13.5145,2.1023,20.3718c1.0011,54.2579,0.951,108.5408,2.3024,162.7986
		c-46.2243-3.7289-92.5487-6.2567-138.798-9.8605c9.36-46.6747,17.9692-93.4746,27.0038-140.1994
		c2.1523-12.4883,6.7822-25.277,2.4526-37.8403C20.6039,751.9984-0.2433,695.9136-18.3627,639.053
		c-28.13,52.8564-32.4596,115.7234-18.795,173.4349c6.6821,22.8494,4.1795,46.8749,6.2817,70.3251
		c1.6518,35.8381,3.2284,71.7014,4.8802,107.5646c-48.752,1.877-97.504,3.2535-146.256,4.8301
		c4.7801-69.1237,11.6875-138.1724,13.8147-207.4462c0.4255-6.9324,1.0762-13.8647,1.1512-20.7972
		c-0.025-29.106,2.3775-58.137,2.828-87.218c0.7758-35.9384,3.1534-71.8266,8.5341-107.3646
		c15.942,12.9639,37.0145,24.0256,58.0869,18.9202c13.8147-3.4286,21.3227-18.1693,20.622-31.6086
		C-68.0156,534.6417-82.2308,511.9925-99.5993,494.7991z"/>
	<path stroke="#000000" stroke-width="0.2346" d="M642.2668,495.6c1.1262-0.4004,3.3536-1.2513,4.4797-1.6518
		c-4.3296,18.9953-11.312,37.3148-15.967,56.235c7.9835,12.4133,18.5698,23.1747,27.6295,34.8872
		c-0.951,0.4505-2.853,1.3765-3.8041,1.827c-9.8105-11.4122-18.795-23.5001-28.7307-34.7871
		C630.8297,533.14,636.9862,514.4952,642.2668,495.6z"/>
	<path stroke="#000000" stroke-width="0.2346" d="M-149.3523,569.2535c0.8509,0.7758,2.5527,2.3525,3.4287,3.1283
		c-5.3808,35.538-7.7583,71.4262-8.5341,107.3646c-0.4505,29.081-2.853,58.112-2.828,87.218
		c-2.7529-2.5527-3.9292-5.656-3.5037-9.2849c0.976-13.4644,1.4515-26.9287,0.976-40.418
		C-158.0366,667.8337-158.0616,618.1057-149.3523,569.2535z"/>
	<path fill="#434343" stroke="#434343" stroke-width="0.2346" d="M-161.5153,764.8121c0.0751-15.8669,0.926-31.7088,1.7018-47.5507
		c0.4755,13.4893,0,26.9537-0.976,40.418c-0.4255,3.6289,0.7508,6.7322,3.5037,9.2849c-0.0751,6.9324-0.7258,13.8648-1.1512,20.7972
		C-158.8375,780.1033-156.7602,771.4942-161.5153,764.8121z"/>
	<path fill="#434343" stroke="#434343" stroke-width="0.2346" d="M-40.4863,758.5054c-1.7519-7.2077-1.6768-14.6156-0.025-21.8232
		C-40.4362,743.9398-40.4112,751.2226-40.4863,758.5054z"/>
	<path fill="#FF00FF" stroke="#FF00FF" stroke-width="0.2346" d="M-153.3316,999.0119c33.2855-1.7269,66.6711-1.6519,99.9566-3.704
		c0.2253,28.3302,0,56.6604,0.1251,85.0157c-15.5666,2.0271-31.2083,3.5287-46.7999,5.1805
		c0.1251-11.3372-0.1001-22.6742,0.2503-33.9863c-34.9122,14.7157-69.349,30.5076-104.111,45.5985
		c-9.8855-6.5319-20.622-16.067-19.2956-29.156c2.0522-15.1661,13.9149-26.4531,24.6012-36.3638
		C-184.4398,1019.5587-169.3737,1008.3217-153.3316,999.0119z"/>
	<path fill="#FF00FF" stroke="#FF00FF" stroke-width="0.2346" d="M30.5145,994.0316c28.2802,2.0272,56.5853,3.6788,84.8655,5.9562
		c6.4068,0.7509,13.9148-1.0761,19.2455,3.5289c20.7471,14.8909,42.1449,29.7568,58.0619,50.0534
		c6.3318,8.3339,12.0378,18.2194,11.4122,29.0559c-0.4004,9.9606-7.4579,18.0942-15.3664,23.375
		c-36.589-17.6688-73.7787-34.1113-110.618-51.2548c-0.0501,11.4121-0.0751,22.8243,0,34.2365
		c-15.7668-1.4264-31.4586-3.7039-47.2504-4.6549C30.2141,1054.2207,30.8648,1024.1135,30.5145,994.0316z"/>
	<path stroke="#000000" stroke-width="0.5872" d="M545.9142,57.6079c-28.3551,1.9522-56.7607,3.6039-85.0907,5.6811
		c-4.5049-0.4005-7.4833,2.9281-10.2108,5.9063c-13.5896,15.5416-28.2552,30.6326-46.0244,41.3941
		c-11.3619,6.8823-26.553,10.7865-38.7162,3.6038c-15.3661-9.2349-23.4747-26.1028-30.8327-41.7445
		c-6.582-0.8508-13.1641-1.902-19.7211-2.9782c-10.2862-0.9759-20.4469-2.878-30.6326-4.6299
		c-5.7813-0.5756-12.1632-2.2274-17.4435,1.026c-18.3447,9.9357-36.4139,20.4219-54.9588,30.032
		c14.3405-33.1604,25.327-67.7473,32.6349-103.1349c32.9101,33.5357,76.9821,56.4602,123.857,61.7659
		c20.772,2.803,41.9197,1.5767,62.4668-2.4527c75.33-14.3653,137.0709-73.9037,162.2229-145.2549
		c4.6299,3.1033,10.486,6.7071,15.8919,2.9032c13.4393-8.6342,18.0692-25.5774,20.5718-40.4432
		c1.902-14.3653,1.5018-31.8088-10.7616-41.7195c16.0923-43.4964,6.9324-91.3225-7.9333-133.7677
		c-19.2454-41.1688-47.701-79.7099-87.3181-103.1599c-30.0822-18.2195-64.8192-26.0779-98.9303-32.7852
		c18.4944-11.0366,37.4649-21.2226,56.1597-31.909c2.4672-1.2232,4.1826-3.3223,5.6218-5.5995l-15.4073,0.1689
		c-28.6307,3.9294-58.9377,6.4571-84.0395,22.1486c-8.9597,5.5311-16.0923,13.4393-22.1238,21.9735
		c-39.417-16.9682-84.9154-15.141-124.7827-0.7757c9.0593,6.1565,20.6968,5.1804,30.3571,9.9856
		c10.2361,3.7289,18.4697,11.4872,22.9496,21.3976c-35.5381,13.2392-68.473,34.6619-92.2484,64.4938
		c-15.2164,18.4697-26.3281,39.8676-35.5378,61.8659c-22.1238-14.2404-47.5507-22.0984-73.1032-27.5792
		c17.1683-6.3068,34.3118-12.5885,51.4798-18.8452c3.1534-0.9514,5.7563-2.9783,7.4081-5.8565
		c-37.4401-1.902-78.634-14.1398-112.9454,7.1078C30.3892-342.8442,10.443-353.08-8.2018-360.2129
		c-15.967-5.931-33.7109-8.9591-50.3537-3.9538c10.7112,16.5423,22.8995,32.0841,34.0112,48.3514
		c-34.9121-3.9792-71.1758-4.1545-104.6615,7.7833c-38.5412,13.2142-69.8746,41.8195-92.9993,74.7046
		c-8.9598,13.4644-20.1466,25.4771-27.179,40.1678c-20.0464,39.9928-24.226,85.3911-27.3793,129.3379
		c-1.2263,28.4304-3.1534,57.1861,1.902,85.3912c4.8801,29.7817,16.4177,58.1369,31.5088,84.1646
		c2.6527,5.0053,6.3068,9.9607,6.1314,15.9421c0.4503,15.6916,0.4754,31.4085,0.6257,47.1001
		c18.0191-15.1911,39.1418-28.13,63.0922-30.5324c9.9606-1.3265,20.0214-0.5006,29.9569,0.5255
		c-3.1283,14.3153-0.9507,29.7067,9.36,40.6934c19.9966-9.1848,40.0928-18.1945,59.9642-27.6044
		c13.5896,6.4068,26.7787,13.6394,40.4933,19.7961c-0.3006-18.0443,0.15-36.0884-0.3507-54.1327
		c15.7168,1.3764,31.5589,1.7268,47.2758-0.1502c54.6833-4.78,106.2632-31.2333,143.8033-71.0258
		c7.3327,19.6709,15.4162,39.0167,23.2248,58.4874c2.1272,5.5811,4.4548,12.0879,1.2513,17.744
		c-6.7073,13.5394-14.0653,26.7786-21.1474,40.1177c-14.1906-14.6656-31.4337-32.0341-53.6574-29.7566
		c-11.1872,6.8072-17.844,19.0202-28.6808,26.3029c-22.524,2.2024-40.0678-15.1161-51.1544-32.7099
		c-4.0794,6.507-8.7343,12.6135-13.5643,18.5699c-0.0251,1.3764-0.1002,4.1044-0.1253,5.4558
		c5.2054-5.0805,9.9606-10.6113,14.215-16.5177c10.8117,18.5198,30.9834,30.5576,52.5811,30.2573
		c9.2848-9.1597,17.8193-19.1954,27.9299-27.4542c7.4579-0.6507,14.5403,2.052,21.2977,4.8552
		c-12.213,7.0574-24.7013,13.6144-37.0393,20.4718c3.3281,1.877,6.6569,3.754,9.9856,5.6559
		c14.6152,8.0587,28.2048,18.4447,38.3906,31.7589c-9.2097-3.5537-16.868-11.8125-27.2789-11.4372
		c-14.6659-0.6506-29.3062-1.1261-43.9721-1.4514c-1.5015-0.0751-4.4799-0.2253-5.9811-0.3003
		c-6.5573,0.5004-14.691-2.1274-19.8463,3.2534c-14.4154,13.4644-32.5347,25.1518-52.9566,24.7264
		c-20.3217-0.5006-38.0655-12.2882-52.6563-25.5022c-23.9504,0.7007-47.976,0.1251-71.8265,2.828
		c-57.8867,40.9436-115.373,82.5129-173.2848,123.4565v2.6029c19.0202,29.5816,37.4398,59.6635,53.5572,90.9469
		c13.4894,26.0779,24.226,53.9575,27.7545,83.2889c2.828,4.0042,3.9795,8.8594,3.4286,13.7397
		c12.4385-5.8812,25.0517-11.4122,37.3399-17.6438l2.0771-0.7008c13.139-5.9063,26.1781-12.0378,39.242-18.0692
		c6.3569-2.9782,12.9136-5.5309,19.1452-8.7343c-3.4283-6.507-11.6121-9.0348-16.5423-14.4154
		c-34.2119-31.3335-50.4041-76.006-70.0998-116.7746c28.9557-23.4751,57.8614-47.0001,86.8926-70.3751
		c0.8759,13.3894,2.2522,26.7285,2.1272,40.168c1.2764,1.1511,3.8539,3.4536,5.1303,4.6048
		c-1.5764-17.5688-2.3023-35.1625-3.2032-52.7563c-32.6349,25.0267-64.2186,51.43-96.0525,77.4576
		c22.7241,46.2743,40.7185,99.1307,84.4901,130.2889c-29.5066,14.7658-59.8389,27.8798-89.746,41.8698
		c-0.4503-26.0779-8.7844-51.2297-19.1953-74.905c-17.1683-38.0655-39.8924-73.2031-61.5158-108.791
		c55.5594-39.7173,111.1937-79.3346,166.703-119.1021c4.5297-3.6788,10.6363-3.2033,16.117-3.4537
		c13.3645-0.0249,26.7286-0.2001,40.0677-1.2263c6.8573-0.075,14.991-2.4526,20.2218,3.3787
		c15.5916,13.6394,35.9129,24.0005,57.1609,21.6229c20.0962-2.1272,37.0644-14.5405,51.2045-28.155
		c17.1933,0.5256,34.3619,2.1273,51.605,1.827c7.3577,0.3504,15.3414-0.8259,22.0988,2.8531
		c41.7444,23.45,83.4636,46.975,125.3335,70.2249c-0.9761,19.8461-2.4278,39.6422-3.2533,59.4883
		c-46.7253-23.0996-92.7741-47.6007-139.7993-70.0747c-5.3805,66.0455-11.4621,132.0158-17.1683,198.0362
		c-65.4449,0.5256-130.8894,2.5528-196.3346,2.0773c-0.2248-3.7039-0.4253-7.433-0.6257-11.1119l-2.6527,3.5788
		c-0.7256,1.3764-1.4514,2.803-2.1523,4.2546c-4.2294,8.3339-6.8573,17.3435-10.6614,25.8775
		c4.1295,2.1274,4.1295,2.1274,4.7446,2.29l2.8385,1.6392c6.1565,4.1545,12.0878,8.6342,17.4185,13.8148
		c63.9433-0.2253,127.8616-1.5516,191.8046-2.1773c14.5904,107.5396,31.1835,214.7791,47.8761,322.0183
		c1.101,6.7322,2.0023,13.5145,2.1025,20.3718c1.0008,54.2579,0.9507,108.5408,2.3023,162.7986
		c-46.2242-3.7289-92.5486-6.2567-138.7979-9.8605c9.36-46.6747,17.969-93.4746,27.0039-140.1994
		c2.152-12.4883,6.7821-25.277,2.4526-37.8403C20.6039,751.9984-0.2435,695.9136-18.3628,639.053
		c-28.13,52.8564-32.4595,115.7234-18.7951,173.4349c6.6822,22.8494,4.1796,46.8749,6.2817,70.3251
		c1.6518,35.8381,3.2285,71.7014,4.8804,107.5646c-48.7522,1.877-97.5042,3.2535-146.2561,4.8301
		c4.7802-69.1237,11.6876-138.1724,13.8148-207.4462c-0.4002-7.6582,1.6769-16.2673-3.0782-22.9495
		c-2.4025,78.4586-9.5353,156.6422-15.2913,234.9005c1.852-0.1,5.5305-0.3253,7.3831-0.4254
		c1.2012,0.4755,3.6037,1.4015,4.8049,1.877c-17.6189,11.6874-35.2378,23.9756-49.3526,39.9177
		c-7.508,8.8594-14.716,19.7458-13.3144,31.959c1.5269,12.7637,12.0881,22.3239,22.7996,28.2051
		c6.4815-1.6517,12.4382-4.78,18.5446-7.4579c27.1292-12.113,54.433-23.8756,81.5121-36.0886
		c0.0251,10.8617,0.0251,21.7233,0,32.6099c18.3194-2.0773,36.6388-4.2545,55.0086-5.8563
		c0.4503-29.7067-0.0501-59.4384,0.2502-89.1699c9.1098-0.1253,18.2192-0.3254,27.3293-0.5256
		c-1.7521-51.58-4.6051-103.11-6.7824-154.6649c-0.2252-15.2413-5.3808-29.7067-7.633-44.6476
		c-2.2027-12.2131-3.1534-24.6013-4.2297-36.9395c-1.7517-7.2077-1.6769-14.6157-0.0251-21.8232
		c1.6017-29.8319,8.7593-59.2383,21.1978-86.3922c16.2924,48.4016,32.96,96.7281,46.6996,145.9307
		c2.5027,10.9366,7.183,22.0986,4.6302,33.4606c-10.6614,54.0826-20.647,108.2905-31.2583,162.3983
		c8.4086,0.4755,16.8179,0.926,25.2265,1.3265c0.3758,31.3583,0.1503,62.7418,0.1253,94.1253
		c18.77,2.3025,37.5901,4.0793,56.3601,6.2317c0.0251-10.8116,0.0251-21.6232,0-32.4097
		c36.0886,16.3175,71.8265,33.3857,108.0403,49.4027c8.1835-6.4319,14.6405-14.7406,18.3695-24.5011
		c20.2468-5.2555,40.343-11.162,60.5645-16.4927c5.3561-1.5015,10.7115-3.0531,16.0422-4.5797
		c-0.0498,7.7582-0.15,15.5164-0.2753,23.2748c6.7571,0.1,19.9951-0.5464,19.9951-0.5464s28.9072-1.631,43.1973-2.7572
		c0.1252-21.573-0.1754-43.121,0.1252-64.669l1.6766-0.1501c6.0566-0.3753,12.1132-0.4755,18.1945-0.6006
		c-8.4089-66.4458-16.0168-133.0167-24.3509-199.4876c-1.7768-13.2892,3.2285-26.0779,4.8049-39.1169
		c10.0858-62.3414,18.445-125.3837,38.4914-185.5229c5.606,20.4969,6.8824,41.8948,9.5601,62.9172
		c5.0805,50.4037,8.9094,100.9327,13.8649,151.3615c0.3755,71.0508,0,142.1014,0.0247,213.1522
		c9.9358-1.3764,19.9214-2.4776,29.9321-3.1784c-0.4005,22.5491-0.125,45.1232-0.2001,67.6973
		c14.9659,1.7269,29.9568,3.0532,44.9478,4.6801c-0.1002-7.7584-0.1503-15.5166-0.1252-23.2499
		c27.5544,17.0933,55.3593,33.761,82.5881,51.3547h2.3777c11.8627-8.7843,20.8973-22.3237,21.0225-37.4648
		c0.7008-26.7036-14.2404-51.9055-34.3118-68.5983c-5.8812-5.6059-14.5905-4.1295-21.9732-5.3307
		c11.9625-1.8519,24.0005-3.0532,36.0382-4.1794c-0.15-58.2121-2.1022-116.3992-2.4526-174.6113
		c-0.2502-15.6917,0.3003-31.4586-1.6516-47.0502c-7.3079-64.2186-13.6647-128.537-21.423-192.6804
		c-1.4016-3.6038-1.9772-7.433-1.877-11.262c-3.3788-28.981-8.0836-57.8117-12.188-86.6925
		c0.15-3.6039-2.6279-8.9596,1.6268-11.0118c-2.5528-1.3263-5.1306-2.6278-7.6834-3.9292
		c5.0805,38.3409,10.9119,76.5817,16.2423,114.8726c5.8565,49.2024,10.8618,98.505,16.3926,147.7575
		c2.2521,24.1258,6.4818,48.1264,5.9564,72.4274c1.5266,62.7418,1.902,125.5087,2.8531,188.2757
		c-50.6791,5.8062-101.3331,11.6624-152.0121,17.3685c0.1002-61.0652,0.0752-122.1053,0.15-183.1703
		c0.025-11.6375,0.3003-23.3249-0.8759-34.9122c-6.2316-59.4133-9.5103-119.1271-17.5187-178.3402
		c-2.1025-13.7396-3.729-27.7046-8.7593-40.7435c-23.6752,65.6702-32.7101,135.1692-43.8719,203.7173
		c-1.5266,11.6124-5.8812,23.0997-4.1793,34.9373c8.0585,65.2446,15.7666,130.5143,23.7753,195.7838
		c-46.4998,1.2513-92.9992,2.1023-139.4987,2.9032c-3.4039-84.3901-8.6344-168.73-11.7627-253.12
		c7.2077-56.9357,16.3672-113.6212,23.8255-170.5319c5.4309-59.1882,10.8364-119.0019,28.305-176.0878
		c1.1264-3.4286,2.6279-6.6822,4.5049-9.7605c0.4002,6.7322,0.4002,13.5145,0.3003,20.2715
		c77.5827-0.7257,155.1905-2.1773,232.7983-2.5276c-0.6257-8.4091-0.1002-16.8681,1.3512-25.1768
		c-33.1854,4.2795-66.4457,8.2337-99.6311,12.5883c-13.3141,1.7519-26.6535-0.5505-39.9178-1.4015
		c-41.594-2.7779-83.0885-6.4818-124.7076-8.9596c3.879-39.0917,9.5598-78.0081,12.6881-117.175
		c5.2308-51.9053,12.0129-103.6856,16.1174-155.6659c-3.4788,1.877-6.1314,4.8051-8.0084,8.2588
		c-19.0703,31.909-39.0165,63.2425-57.9368,95.2265c-15.4413-8.2337-30.5074-17.1182-45.8741-25.4521
		c-7.1322-3.5038-11.0867-10.6364-16.1421-16.3925c-10.8114-12.7386-24.7511-22.3239-39.2667-30.3824
		c10.9116-5.9564,21.8984-11.8376,32.7097-18.0193c10.5114,7.2829,19.2958,16.6178,27.5544,26.3031
		c8.9093-16.1423,17.018-32.735,26.0028-48.8271c1.6516,4.5298,3.3288,9.0596,5.0304,13.5895
		c6.5069-10.411,11.6622-21.573,17.1182-32.5597c18.2446-10.1358,36.6391-20.0214,54.8336-30.3073
		c4.3296-2.3275,8.9347-5.3056,14.09-3.7791c18.1942,2.7029,36.4387,4.9554,54.533,8.1838
		c6.9324,15.4665,15.6417,31.4085,30.4328,40.6183c11.3619,7.3328,26.3529,5.6561,37.9904-0.2001
		c23.1747-11.2371,39.5172-31.834,57.5363-49.4277c28.2552-2.3026,56.6104-3.5038,84.8653-6.0065
		c44.1725,76.7318,88.1943,153.5387,132.5165,230.1704c-38.5411-0.075-76.2064,12.1631-109.3915,31.2834
		c-14.7408-59.088-28.7059-118.3762-43.8969-177.3391c-5.9313,3.1784-2.3276,10.6364-2.7028,15.867
		c3.6287,66.8712,8.3087,133.6925,11.287,200.5888c1.1761-0.1251,3.5286-0.3503,4.7047-0.4755
		c-4.0039-57.8867-6.2817-115.8735-10.6614-173.7102c-1.3763-5.7061-2.0521-11.5623-1.4264-17.4186
		c2.0521,3.4537,4.0292,7.1077,4.3796,11.187c1.4264,10.5612,4.4298,20.7721,6.9325,31.1082
		c9.5601,38.8415,19.0953,77.6828,28.6808,116.5242c16.0419-9.2599,32.7097-17.5938,50.3784-23.3249
		c15.817-4.9552,32.1345-8.6593,48.7269-9.3098c6.7073-0.5256,13.4647-0.5507,20.1967-0.5757
		C637.3865,216.7276,591.5879,137.1927,545.9142,57.6079z M-100.0496,1085.5042c0.1249-11.3372-0.1002-22.6742,0.2502-33.9863
		c-34.9124,14.7157-69.3492,30.5076-104.111,45.5985c-9.8857-6.5319-20.622-16.067-19.2958-29.156
		c2.052-15.1661,13.9147-26.4531,24.6011-36.3638c14.1655-12.0378,29.2313-23.2748,45.2735-32.5847
		c33.2856-1.7269,66.6711-1.6519,99.9565-3.704c0.2255,28.3302,0,56.6604,0.1253,85.0157
		C-68.8164,1082.3507-84.458,1083.8523-100.0496,1085.5042z M444.9316,1019.3336c14.4404-2.5277,29.1809-3.1033,43.6965-5.3808
		c19.0202-3.0782,38.2158-0.4004,57.3109,0.1501c6.3068-0.075,10.5865,5.2056,14.9161,9.0596
		c15.967,16.2175,27.9299,38.5162,26.103,61.866c-1.0763,11.8376-7.3079,24.7515-18.2696,30.082
		c-29.5817-16.943-57.9619-36.0885-87.4431-53.2317c-0.1503,8.5841-0.2004,17.1934-0.3006,25.8025
		c-12.1626-1.5767-24.376-2.7029-36.6137-3.4788C444.9065,1062.5796,443.6051,1040.8815,444.9316,1019.3336z M204.0998,1082.626
		c-0.4008,9.9606-7.4582,18.0942-15.3667,23.375c-36.5887-17.6688-73.7786-34.1113-110.6178-51.2548
		c-0.0501,11.4121-0.0752,22.8243,0,34.2365c-15.7669-1.4264-31.4587-3.7039-47.2504-4.6549
		c-0.6507-30.1071,0-60.2142-0.3504-90.2961c28.2803,2.0272,56.5856,3.6788,84.8656,5.9562
		c6.4067,0.7509,13.9147-1.0761,19.2457,3.5289c20.7469,14.8909,42.1445,29.7568,58.0618,50.0534
		C199.0193,1061.9039,204.7255,1071.7894,204.0998,1082.626z M225.3975,1022.9124c40.1677-1.0262,80.3854-1.7269,120.5534-2.728
		c-0.1754,20.5469,0.5255,41.0939-0.4503,61.6157c-18.8201,0.3505-37.5651,2.0773-56.3351,3.1283
		c0.3-8.3087,0.325-16.5927,0.025-24.8765c-26.8539,7.1327-53.5575,14.7407-80.3109,22.1487
		c-0.7008-17.0933-11.9879-30.9081-22.9743-42.9708C198.869,1033.4236,211.5827,1026.3409,225.3975,1022.9124z M234.9325,407.2307
		c9.5099,0.7758,18.9952,1.6768,28.5054,2.2523c-19.5711,55.3341-23.8255,114.4472-30.9333,172.2086
		c0,0-1.3106,10.1608-1.3356,14.8909c-7.783,55.284-15.2066,110.5179-22.865,165.8018
		c-0.7008,21.7231,2.1272,43.3964,2.5027,65.1195c3.1784,64.0684,6.2316,128.1367,9.385,192.205
		c-12.5134,5.0554-25.0016,10.2109-36.9144,16.5676c-13.2142-11.2119-26.1778-22.9494-41.1437-31.8339
		c0.9006-0.4755,2.6527-1.3764,3.5536-1.8269l2.6029-1.4265c0.1252-52.0306-1.1762-104.061-2.0023-156.0914
		c-0.1002-8.359,0.1002-16.7429-1.1511-25.0267c-9.2598-59.3133-18.2446-118.6516-27.4542-177.9899l-4.3296-29.0309
		c-5.8565-42.8707-12.2133-85.6913-18.2696-128.537c-3.1033-10.7614-1.852-22.0485-1.4517-33.0603
		c-0.6257-3.1784-0.8508-6.3818-0.7008-9.5853c5.1306-60.4394,11.112-120.8037,15.5167-181.2933
		c45.198,21.6982,89.3956,45.4987,134.5435,67.2467C240.8388,354.3494,237.0347,380.7024,234.9325,407.2307z M258.6328,149.2807
		c1.3512-2.0021,2.8531-3.854,4.5297-5.5809c-4.4047,39.1667-8.7343,78.3586-12.6133,117.5753
		c-15.4165-7.608-30.032-16.7429-45.198-24.8264C223.0947,207.3677,241.0392,178.4118,258.6328,149.2807z M617.9908-168.7585
		c10.3862,11.5374,9.1849,28.3302,6.9325,42.5704c-2.7278,11.7125-6.6819,24.7013-16.9682,31.9341
		c-4.4796,3.6289-13.9648-0.6758-11.6873-6.7322c4.6299-14.8158,7.7081-30.007,10.311-45.2982
		C609.4069-154.193,614.312-161.2255,617.9908-168.7585z M246.3696-285.4579c13.94-19.4458,39.092-24.8015,61.6658-24.9265
		c4.705,42.2698,29.1812,79.0591,58.4623,108.6406c10.7867,10.5112,21.4981,21.1726,33.2606,30.5827
		c-7.9333-22.1987-14.7157-45.1232-16.4427-68.7484c-1.6766-20.1967,0.4005-41.8445,12.063-59.0379
		c9.5103-14.2153,24.8012-23.7503,40.9937-28.5806c23.6752-1.1261,47.5006,8.4841,65.0694,24.1759l0.4256-0.0251
		c21.9983,16.893,38.3407,39.7675,53.7573,62.5166c7.3326,9.1849,17.1182,16.4676,22.7491,27.0289
		c11.1371,15.8167,17.7939,34.2865,23.1747,52.7311c2.3276,6.482,0.5255,13.3393-0.3003,19.9213
		c-8.609,58.8378-39.6675,114.6974-87.118,150.9861c-35.5879,27.5793-80.6109,42.9708-125.709,41.9448
		c-53.4069-0.8009-105.4872-24.9266-142.0515-63.5929c4.2046-31.0081,9.21-62.5667,9.2347-94.1253
		c-5.5559-43.6716-16.1421-88.094-40.8932-125.1585C225.4473-249.119,234.9573-267.8891,246.3696-285.4579z M-232.1155,159.6167
		c-0.3006-11.0868-0.8511-22.1987,0.0501-33.2604c5.0554,7.4329,9.3098,15.3663,13.7897,23.1746
		C-222.7054,153.1347-227.2855,156.5634-232.1155,159.6167z M-35.7312,165.7232c-13.3394-5.1805-25.5772-12.6635-38.616-18.4697
		c-19.6712,9.2348-39.242,18.845-59.4384,26.9037c-5.5311-8.8094-8.7095-19.4708-5.7813-29.7568
		c-0.3254-2.7779,2.953-7.2576-0.3254-9.0596c-24.9518-4.9302-50.9543-0.3254-73.4032,11.3372
		c16.2673-28.8558,34.5116-56.6104,51.5048-85.0657c34.9622,30.8828,79.5098,50.9042,126.0093,55.4591
		C-35.2808,133.2886-35.331,149.506-35.7312,165.7232z M152.895,43.7682c-34.1615,38.1906-82.8633,62.4166-133.5674,68.6981
		c-63.768,8.7344-130.9649-11.262-178.8907-54.408c3.1534-5.4307,6.9324-10.5112,9.4852-16.2673
		c-16.7931-39.7173-32.9603-81.5119-31.609-125.3586c1.0512-10.3611,1.1264-21.2727,5.481-30.9331
		c9.4101,13.8148,19.1705,27.5045,29.5313,40.6184l2.2528,0.4755l0.8756-2.6278c-5.2054-20.9475-11.1869-43.7967-3.0782-64.8442
		c4.0045-11.0367,13.5395-18.5198,23.2248-24.401c9.6355,17.1683,16.2423,35.8382,25.4773,53.2318
		c7.3079-25.1269,18.92-50.8793,41.294-65.9954c18.1691-13.114,41.9695-17.8691,63.5929-11.5623
		c15.0912,4.0042,27.9296,13.5895,38.4657,24.8264c6.1568,7.408,11.2871,15.5416,16.7681,23.425
		c0.5756-7.6331,0.926-15.2662,1.5015-22.8993c1.1762-9.6604,1.877-19.3957,2.3026-29.1311
		c22.0484,17.7189,40.7933,40.418,52.2056,66.3707c7.5832,12.7386,13.915,26.9037,17.1432,41.4193
		c1.3265-0.0251,3.9291-0.1002,5.2556-0.1253c1.9521-19.0952,3.0281-38.2657,4.7551-57.3862
		c24.0757,53.6572,25.7773,115.7234,12.4135,172.534C156.3487,34.233,156.3236,39.8139,152.895,43.7682z M201.1963,109.263
		c-2.7275,5.2806-4.5547,11.262-8.9344,15.5166c-10.2358-28.0049-22.374-55.284-32.6346-83.2638
		c7.2825-33.6359,13.5392-68.1977,10.0858-102.7596c-2.6279-32.1843-10.4863-64.0933-24.2263-93.3746
		c-0.8756,0.6257-2.6276,1.877-3.5035,2.5027c-1.6519,18.0943-3.2536,36.2637-4.2544,54.4581
		c-2.0774-3.2534-3.9544-6.6572-5.306-10.261c-14.5905-36.3637-37.815-69.7494-69.399-93.3495
		c-2.1022,14.991-2.7529,30.1571-3.754,45.2483c-3.7039-1.3764-5.631-5.0555-8.0585-7.9085
		c-15.0411-19.2205-38.4159-32.8599-63.2675-32.4595c-16.5677-1.0511-32.5096,5.5059-46.1491,14.3904
		c-20.1967,13.6646-33.4109,35.6881-40.168,58.7626c-8.0084-15.4665-14.7655-31.5586-22.0985-47.3504
		c-12.5885,5.2306-24.3011,14.1401-29.5564,27.0789c-7.9339,18.2695-4.7304,38.8914-0.2505,57.5864
		c-10.186-12.188-18.3945-25.8777-28.6053-38.0406c-17.7441,55.8596,1.7518,114.3219,24.401,165.6767
		c-21.0726,33.6858-40.9189,68.1727-62.717,101.3831c-16.7427-29.4565-35.4626-58.2622-45.8491-90.7718
		c-8.9344-27.5795-12.0627-56.8357-10.8612-85.7415c1.7016-38.1156,3.4033-76.5816,12.4632-113.7963
		c5.8061-23.5001,14.5654-46.825,29.7064-65.9705c8.8846-11.1368,16.1674-23.4751,25.5772-34.2114
		c22.5992-27.4542,52.4311-49.853,87.0178-59.4384c33.4109-9.9355,68.8234-7.7332,103.035-3.8041
		c-11.3118-17.3683-24.0506-33.7359-35.788-50.8043c21.2476-3.929,42.7705,3.9294,61.2903,13.8398
		c11.9879,6.8823,24.9265,16.4928,25.7275,31.609c9.7852-6.407,20.2713-12.1632,31.9341-14.1404
		c23.8255-3.7289,47.8006,0.801,71.576,2.2778c-19.7959,8.7841-40.6183,15.2158-60.8648,23.0244
		c10.311,3.3285,21.1978,4.054,31.5837,7.1075c35.2628,8.7844,68.9487,27.229,92.0232,55.7843
		c27.1542,32.7602,39.9926,74.6548,47.0753,115.9488c4.2544,19.7461,2.5528,40.0928,0.5756,60.0139
		C243.6418-5.3592,228.075,54.5547,201.1963,109.263z"/>
	<path fill="#434343" stroke="#434343" stroke-width="0.2346" d="M444.9314,1019.3336c14.4404-2.5277,29.1811-3.1033,43.6966-5.3808
		c19.0203-3.0782,38.2157-0.4004,57.3111,0.1501c6.3068-0.075,10.5863,5.2056,14.916,9.0596
		c15.967,16.2175,27.9297,38.5162,26.1028,61.866c-1.0762,11.8376-7.3079,24.7515-18.2695,30.082
		c-29.5815-16.943-57.9618-36.0885-87.4433-53.2317c-0.1501,8.5841-0.2002,17.1934-0.3003,25.8025
		c-12.163-1.5767-24.376-2.7029-36.6141-3.4788C444.9064,1062.5796,443.605,1040.8815,444.9314,1019.3336z"/>
	<path fill="#434343" stroke="#434343" stroke-width="0.2346" d="M225.3973,1022.9124c40.1678-1.0262,80.3857-1.7269,120.5535-2.728
		c-0.1751,20.5469,0.5256,41.0939-0.4504,61.6157c-18.8201,0.3505-37.5651,2.0773-56.3351,3.1283
		c0.3003-8.3087,0.3254-16.5927,0.025-24.8765c-26.8536,7.1327-53.5571,14.7407-80.3106,22.1487
		c-0.7007-17.0933-11.9878-30.9081-22.9745-42.9708C198.869,1033.4236,211.5826,1026.3409,225.3973,1022.9124z"/>
	<path fill="#FFD5BF" stroke="#FFD5BF" stroke-width="0.5872" d="M689.6176,483.8374c-1.877-1.902-4.8553-3.3536-4.7554-6.4319
		c-5.9059-58.4623-12.0126-116.9246-17.6687-175.412l-0.9626-5.1555l-3.5386,0.2328c0.088-0.0808,0.1843-0.1515,0.2716-0.2328
		c-16.5924,0.6506-32.9099,4.3546-48.7269,9.3098c3.5038,7.3078,9.4852,13.7897,9.9856,22.1987
		c5.0805,51.4799,10.6364,102.9348,15.4917,154.4648c-15.7419,13.4893-23.5001,34.2616-24.2009,54.6331
		c-1.101,23.4251,5.9564,48.3016,23.1747,64.8942c11.3622,11.0619,29.3813,16.2173,44.1221,8.9095
		c22.1736-10.5361,32.1342-36.3387,33.4857-59.5134v-11.287C714.4438,519.3503,706.6606,497.3519,689.6176,483.8374z
		 M654.6052,586.8973c-9.8109-11.4122-18.795-23.5001-28.7309-34.787c4.9556-18.9703,11.112-37.6152,16.3926-56.5103
		c1.126-0.4005,3.3535-1.2513,4.4796-1.6518c-4.3296,18.9953-11.3121,37.3148-15.9667,56.235
		c7.9833,12.4133,18.5696,23.1747,27.6293,34.8872C657.458,585.5209,655.556,586.4468,654.6052,586.8973z"/>
</g>
</svg>
